<svg width="96" height="256" viewBox="0 0 96 256" fill="none" xmlns="http://www.w3.org/2000/svg">
<path d="M86.0845 121.064C92.4641 121.256 95.6539 123.656 95.6539 128.264C95.6539 132.68 92.4641 135.176 86.0845 135.752C77.285 136.136 71.1254 138.152 67.6056 141.8C64.3058 145.256 62.6559 151.016 62.6559 159.08L61.996 229.064C61.996 237.704 59.4661 244.328 54.4064 248.936C49.3467 253.544 41.8672 255.848 31.9678 255.848H10.1892C7.10935 255.848 4.6895 255.176 2.92961 253.832C1.3897 252.68 0.619751 251.048 0.619751 248.936C0.619751 246.632 1.4997 244.808 3.25959 243.464C5.01948 242.12 7.32934 241.448 10.1892 241.448H27.6781C37.3575 241.448 42.1972 237.032 42.1972 228.2V157.352C42.1972 149.096 44.3971 142.568 48.7968 137.768C53.4165 132.776 58.9162 129.608 65.2958 128.264C58.9162 126.92 53.4165 123.848 48.7968 119.048C44.3971 114.056 42.1972 107.432 42.1972 99.1758V28.6158C42.1972 19.7838 37.3575 15.3678 27.6781 15.3678H10.1892C7.32934 15.3678 5.01948 14.6958 3.25959 13.3518C1.4997 12.0078 0.619751 10.1838 0.619751 7.87977C0.619751 5.76778 1.3897 4.13578 2.92961 2.98378C4.6895 1.63978 7.10935 0.967773 10.1892 0.967773H31.9678C41.8672 0.967773 49.3467 3.27177 54.4064 7.87977C59.4661 12.4878 61.996 19.1118 61.996 27.7518V97.4478C61.996 105.32 63.7559 111.08 67.2756 114.728C70.7954 118.376 77.065 120.488 86.0845 121.064Z" fill="#DBEAF7"/>
</svg>
