<svg width="96" height="255" viewBox="0 0 96 255" fill="none" xmlns="http://www.w3.org/2000/svg">
<path d="M85.7947 240.48C88.6545 240.48 90.9644 241.152 92.7243 242.496C94.4842 243.84 95.3641 245.664 95.3641 247.968C95.3641 250.08 94.4842 251.712 92.7243 252.864C91.1844 254.208 88.8745 254.88 85.7947 254.88H64.0161C54.1167 254.88 46.6371 252.576 41.5774 247.968C36.5177 243.36 33.9879 236.736 33.9879 228.096V158.112C33.9879 150.24 32.118 144.48 28.3783 140.832C24.8585 137.184 18.5889 135.168 9.56941 134.784C3.1898 134.208 0 131.712 0 127.296C0 125.376 0.769951 123.744 2.30986 122.4C4.06975 121.056 6.4896 120.288 9.56941 120.096C18.5889 119.52 24.8585 117.408 28.3783 113.76C32.118 110.112 33.9879 104.352 33.9879 96.48V26.784C33.9879 18.144 36.5177 11.52 41.5774 6.912C46.6371 2.304 54.1167 0 64.0161 0H85.7947C88.8745 0 91.1844 0.672005 92.7243 2.01601C94.4842 3.16801 95.3641 4.8 95.3641 6.912C95.3641 9.216 94.4842 11.04 92.7243 12.384C90.9644 13.728 88.6545 14.4 85.7947 14.4H68.3058C58.6264 14.4 53.7867 18.816 53.7867 27.648V98.208C53.7867 106.464 51.4768 113.088 46.8571 118.08C42.4574 122.88 36.9577 125.952 30.3581 127.296C36.9577 128.64 42.4574 131.808 46.8571 136.8C51.4768 141.6 53.7867 148.128 53.7867 156.384V227.232C53.7867 236.064 58.6264 240.48 68.3058 240.48H85.7947Z" fill="#DBEAF7"/>
</svg>
