<svg width="29" height="24" viewBox="0 0 29 24" fill="none" xmlns="http://www.w3.org/2000/svg">
<path d="M14.4422 1.00403e-06C6.84493 -0.00268026 0.691528 5.36521 0.691528 11.9906C0.691528 17.2298 4.54086 21.6834 9.90166 23.319C10.6236 23.4772 10.513 23.0294 10.513 22.7237V20.6457C6.34418 21.0721 6.17521 18.6643 5.89565 18.2621C5.33039 17.4202 3.99403 17.2057 4.3934 16.8035C5.34268 16.3772 6.31039 16.9107 7.4317 18.3559C8.24273 19.4043 9.82486 19.2274 10.6267 19.0531C10.8018 18.423 11.1766 17.8599 11.6927 17.4229C7.37333 16.7472 5.57308 14.4467 5.57308 11.7118C5.57308 10.3845 6.07384 9.16457 7.05691 8.18054C6.4302 6.55838 7.11527 5.16948 7.20744 4.96302C8.99232 4.8236 10.8479 6.07843 10.9923 6.17764C12.006 5.939 13.1642 5.81298 14.4606 5.81298C15.7632 5.81298 16.9245 5.94437 17.9475 6.18568C18.2946 5.95509 20.015 4.87722 21.6739 5.0086C21.763 5.21506 22.4327 6.57178 21.8429 8.1725C22.8382 9.1592 23.3451 10.3899 23.3451 11.7198C23.3451 14.4601 21.5326 16.7633 17.201 17.4282C17.572 17.7467 17.8666 18.1265 18.0675 18.5454C18.2685 18.9643 18.3718 19.414 18.3714 19.8682V22.8846C18.396 23.1259 18.3714 23.3645 18.8322 23.3645C24.2729 21.7638 28.1898 17.2781 28.1898 11.9933C28.1898 5.36521 22.0334 1.00403e-06 14.4422 1.00403e-06Z" fill="#4DA8FF"/>
</svg>
